<mxfile host="app.diagrams.net" modified="2024-02-27T11:46:19.341Z" agent="Mozilla/5.0 (Macintosh; Intel Mac OS X 10_15_7) AppleWebKit/537.36 (KHTML, like Gecko) Chrome/121.0.0.0 Safari/537.36" etag="LzDabSQYZ51sDn4ZRgPr" version="23.1.7" type="github">
  <diagram name="Page-1" id="c7558073-3199-34d8-9f00-42111426c3f3">
    <mxGraphModel dx="2473" dy="903" grid="1" gridSize="10" guides="1" tooltips="1" connect="1" arrows="1" fold="1" page="1" pageScale="1" pageWidth="826" pageHeight="1169" background="none" math="0" shadow="0">
      <root>
        <mxCell id="0" />
        <mxCell id="1" parent="0" />
        <mxCell id="eQANFN2BBr7va7smQhrV-147" style="edgeStyle=orthogonalEdgeStyle;rounded=0;orthogonalLoop=1;jettySize=auto;html=1;entryX=0.5;entryY=0;entryDx=0;entryDy=0;" edge="1" parent="1" source="eQANFN2BBr7va7smQhrV-97" target="eQANFN2BBr7va7smQhrV-98">
          <mxGeometry relative="1" as="geometry" />
        </mxCell>
        <mxCell id="eQANFN2BBr7va7smQhrV-148" style="edgeStyle=orthogonalEdgeStyle;rounded=0;orthogonalLoop=1;jettySize=auto;html=1;" edge="1" parent="1" source="eQANFN2BBr7va7smQhrV-97" target="eQANFN2BBr7va7smQhrV-102">
          <mxGeometry relative="1" as="geometry">
            <Array as="points">
              <mxPoint x="260" y="280" />
              <mxPoint x="430" y="280" />
            </Array>
          </mxGeometry>
        </mxCell>
        <mxCell id="eQANFN2BBr7va7smQhrV-97" value="知识库列表" style="rounded=0;whiteSpace=wrap;html=1;fillColor=#dae8fc;strokeColor=#6c8ebf;" vertex="1" parent="1">
          <mxGeometry x="200" y="180" width="120" height="60" as="geometry" />
        </mxCell>
        <mxCell id="eQANFN2BBr7va7smQhrV-110" value="" style="rounded=0;orthogonalLoop=1;jettySize=auto;html=1;" edge="1" parent="1" source="eQANFN2BBr7va7smQhrV-98" target="eQANFN2BBr7va7smQhrV-104">
          <mxGeometry relative="1" as="geometry" />
        </mxCell>
        <mxCell id="eQANFN2BBr7va7smQhrV-98" value="创建知识库" style="rounded=0;whiteSpace=wrap;html=1;fillColor=#fff2cc;strokeColor=#d6b656;" vertex="1" parent="1">
          <mxGeometry x="90" y="310" width="120" height="60" as="geometry" />
        </mxCell>
        <mxCell id="eQANFN2BBr7va7smQhrV-119" value="" style="edgeStyle=orthogonalEdgeStyle;rounded=0;orthogonalLoop=1;jettySize=auto;html=1;" edge="1" parent="1" source="eQANFN2BBr7va7smQhrV-102" target="eQANFN2BBr7va7smQhrV-118">
          <mxGeometry relative="1" as="geometry" />
        </mxCell>
        <mxCell id="eQANFN2BBr7va7smQhrV-102" value="管理知识库" style="rounded=0;whiteSpace=wrap;html=1;fillColor=#e1d5e7;strokeColor=#9673a6;" vertex="1" parent="1">
          <mxGeometry x="370" y="310" width="120" height="60" as="geometry" />
        </mxCell>
        <mxCell id="eQANFN2BBr7va7smQhrV-111" value="" style="edgeStyle=orthogonalEdgeStyle;rounded=0;orthogonalLoop=1;jettySize=auto;html=1;curved=1;" edge="1" parent="1" source="eQANFN2BBr7va7smQhrV-104" target="eQANFN2BBr7va7smQhrV-105">
          <mxGeometry relative="1" as="geometry" />
        </mxCell>
        <mxCell id="eQANFN2BBr7va7smQhrV-104" value="选择数据源" style="rounded=0;whiteSpace=wrap;html=1;fillColor=#fff2cc;strokeColor=#d6b656;" vertex="1" parent="1">
          <mxGeometry x="90" y="400" width="120" height="60" as="geometry" />
        </mxCell>
        <mxCell id="eQANFN2BBr7va7smQhrV-137" style="edgeStyle=orthogonalEdgeStyle;rounded=0;orthogonalLoop=1;jettySize=auto;html=1;entryX=0.5;entryY=0;entryDx=0;entryDy=0;" edge="1" parent="1" source="eQANFN2BBr7va7smQhrV-105" target="eQANFN2BBr7va7smQhrV-107">
          <mxGeometry relative="1" as="geometry" />
        </mxCell>
        <mxCell id="eQANFN2BBr7va7smQhrV-140" style="edgeStyle=orthogonalEdgeStyle;rounded=0;orthogonalLoop=1;jettySize=auto;html=1;entryX=0.5;entryY=0;entryDx=0;entryDy=0;" edge="1" parent="1" source="eQANFN2BBr7va7smQhrV-105" target="eQANFN2BBr7va7smQhrV-108">
          <mxGeometry relative="1" as="geometry" />
        </mxCell>
        <mxCell id="eQANFN2BBr7va7smQhrV-141" style="edgeStyle=orthogonalEdgeStyle;rounded=0;orthogonalLoop=1;jettySize=auto;html=1;" edge="1" parent="1" source="eQANFN2BBr7va7smQhrV-105" target="eQANFN2BBr7va7smQhrV-106">
          <mxGeometry relative="1" as="geometry" />
        </mxCell>
        <mxCell id="eQANFN2BBr7va7smQhrV-145" style="edgeStyle=orthogonalEdgeStyle;rounded=0;orthogonalLoop=1;jettySize=auto;html=1;entryX=0.5;entryY=0;entryDx=0;entryDy=0;" edge="1" parent="1" source="eQANFN2BBr7va7smQhrV-105" target="eQANFN2BBr7va7smQhrV-144">
          <mxGeometry relative="1" as="geometry" />
        </mxCell>
        <mxCell id="eQANFN2BBr7va7smQhrV-105" value="文本分段与清洗" style="rounded=0;whiteSpace=wrap;html=1;fillColor=#fff2cc;strokeColor=#d6b656;" vertex="1" parent="1">
          <mxGeometry x="90" y="490" width="120" height="60" as="geometry" />
        </mxCell>
        <mxCell id="eQANFN2BBr7va7smQhrV-106" value="分段设置" style="rounded=1;whiteSpace=wrap;html=1;glass=0;shadow=0;fillColor=#f8cecc;strokeColor=#b85450;" vertex="1" parent="1">
          <mxGeometry x="-30" y="620" width="100" height="60" as="geometry" />
        </mxCell>
        <mxCell id="eQANFN2BBr7va7smQhrV-107" value="索引设置" style="rounded=1;whiteSpace=wrap;html=1;fillColor=#f8cecc;strokeColor=#b85450;" vertex="1" parent="1">
          <mxGeometry x="100" y="620" width="100" height="60" as="geometry" />
        </mxCell>
        <mxCell id="eQANFN2BBr7va7smQhrV-108" value="检索设置" style="rounded=1;whiteSpace=wrap;html=1;fillColor=#f8cecc;strokeColor=#b85450;" vertex="1" parent="1">
          <mxGeometry x="215" y="620" width="90" height="60" as="geometry" />
        </mxCell>
        <mxCell id="eQANFN2BBr7va7smQhrV-118" value="文档查看" style="rounded=1;whiteSpace=wrap;html=1;fillColor=#ffe6cc;strokeColor=#d79b00;" vertex="1" parent="1">
          <mxGeometry x="300" y="450" width="120" height="60" as="geometry" />
        </mxCell>
        <mxCell id="eQANFN2BBr7va7smQhrV-120" value="召回测试" style="rounded=1;whiteSpace=wrap;html=1;fillColor=#ffe6cc;strokeColor=#d79b00;" vertex="1" parent="1">
          <mxGeometry x="460" y="450" width="120" height="60" as="geometry" />
        </mxCell>
        <mxCell id="eQANFN2BBr7va7smQhrV-121" value="设置" style="rounded=1;whiteSpace=wrap;html=1;fillColor=#ffe6cc;strokeColor=#d79b00;" vertex="1" parent="1">
          <mxGeometry x="610" y="450" width="120" height="60" as="geometry" />
        </mxCell>
        <mxCell id="eQANFN2BBr7va7smQhrV-123" style="edgeStyle=orthogonalEdgeStyle;rounded=0;orthogonalLoop=1;jettySize=auto;html=1;entryX=0.419;entryY=-0.031;entryDx=0;entryDy=0;entryPerimeter=0;" edge="1" parent="1" source="eQANFN2BBr7va7smQhrV-102" target="eQANFN2BBr7va7smQhrV-120">
          <mxGeometry relative="1" as="geometry" />
        </mxCell>
        <mxCell id="eQANFN2BBr7va7smQhrV-146" style="edgeStyle=orthogonalEdgeStyle;rounded=0;orthogonalLoop=1;jettySize=auto;html=1;entryX=0.5;entryY=0;entryDx=0;entryDy=0;" edge="1" parent="1" source="eQANFN2BBr7va7smQhrV-127" target="eQANFN2BBr7va7smQhrV-97">
          <mxGeometry relative="1" as="geometry" />
        </mxCell>
        <mxCell id="eQANFN2BBr7va7smQhrV-127" value="用户" style="ellipse;whiteSpace=wrap;html=1;rounded=0;fillColor=#d5e8d4;strokeColor=#82b366;" vertex="1" parent="1">
          <mxGeometry x="220" y="40" width="80" height="80" as="geometry" />
        </mxCell>
        <mxCell id="eQANFN2BBr7va7smQhrV-139" style="edgeStyle=orthogonalEdgeStyle;rounded=0;orthogonalLoop=1;jettySize=auto;html=1;entryX=0.582;entryY=0.019;entryDx=0;entryDy=0;entryPerimeter=0;" edge="1" parent="1" source="eQANFN2BBr7va7smQhrV-102" target="eQANFN2BBr7va7smQhrV-121">
          <mxGeometry relative="1" as="geometry" />
        </mxCell>
        <mxCell id="eQANFN2BBr7va7smQhrV-144" value="分段预览" style="rounded=1;whiteSpace=wrap;html=1;fillColor=#f8cecc;strokeColor=#b85450;" vertex="1" parent="1">
          <mxGeometry x="320" y="620" width="90" height="60" as="geometry" />
        </mxCell>
      </root>
    </mxGraphModel>
  </diagram>
</mxfile>
